<svg width="47" height="48" viewBox="0 0 47 48" fill="none" xmlns="http://www.w3.org/2000/svg">
<rect x="0.0239258" y="0.973694" width="46.8471" height="46.8471" rx="10.4105" fill="#FFDA83" fill-opacity="0.26"/>
<path d="M23.4488 12.0348C20.1701 12.0348 17.0257 13.3373 14.7073 15.6557C12.3889 17.9741 11.0864 21.1185 11.0864 24.3972C11.0864 27.676 12.3889 30.8204 14.7073 33.1388C17.0257 35.4572 20.1701 36.7597 23.4488 36.7597L23.4488 24.3972V12.0348Z" fill="url(#paint0_linear_0_1)"/>
<path d="M23.4506 36.7598C26.7293 36.7598 29.8737 35.4573 32.1921 33.1389C34.5105 30.8205 35.813 27.6761 35.813 24.3973C35.813 21.1186 34.5105 17.9742 32.1921 15.6558C29.8737 13.3374 26.7293 12.0349 23.4506 12.0349L23.4506 15.652C25.77 15.652 27.9944 16.5733 29.6345 18.2134C31.2746 19.8535 32.196 22.0779 32.196 24.3973C32.196 26.7168 31.2746 28.9412 29.6345 30.5813C27.9944 32.2213 25.77 33.1427 23.4506 33.1427L23.4506 36.7598Z" fill="#FFDF93"/>
<defs>
<linearGradient id="paint0_linear_0_1" x1="38.3257" y1="12.0348" x2="9.77777" y2="15.4765" gradientUnits="userSpaceOnUse">
<stop stop-color="#FD7E14"/>
<stop offset="1" stop-color="#FFBD44"/>
</linearGradient>
</defs>
</svg>
